<?xml version="1.0" encoding="utf-8"?>
<!-- Generator: Adobe Illustrator 24.0.3, SVG Export Plug-In . SVG Version: 6.00 Build 0)  -->
<svg version="1.1" id="Calque_1" xmlns="http://www.w3.org/2000/svg" xmlns:xlink="http://www.w3.org/1999/xlink" x="0px" y="0px"
	 viewBox="0 0 800 800" style="enable-background:new 0 0 800 800;" xml:space="preserve">
<style type="text/css">
	.st0{fill:url(#SVGID_1_);}
	.st1{fill:url(#SVGID_2_);}
</style>
<linearGradient id="SVGID_1_" gradientUnits="userSpaceOnUse" x1="303.9758" y1="144.209" x2="461.4407" y2="636.1431" gradientTransform="matrix(1 0 0 -1 0 800)">
	<stop  offset="0" style="stop-color:#F4E380"/>
	<stop  offset="1" style="stop-color:#46D1C3"/>
</linearGradient>
<path class="st0" d="M379.4,483.1C379.3,540.4,335.2,588,278,592.4c-4.6,0.4-8.2,4.2-8.2,8.9v37.1c0,4.9,3.9,8.9,8.9,8.9
	c0.2,0,0.3,0,0.5,0c86.3-4.8,155.1-76.6,155.1-164.1V161.7c0-4.9-4-8.9-8.9-8.9c0,0,0,0,0,0h-37c-4.9,0-8.9,4-8.9,8.9v0L379.4,483.1
	z"/>
<linearGradient id="SVGID_2_" gradientUnits="userSpaceOnUse" x1="425.657" y1="105.1109" x2="583.067" y2="596.861" gradientTransform="matrix(1 0 0 -1 0 800)">
	<stop  offset="0" style="stop-color:#F4E380"/>
	<stop  offset="1" style="stop-color:#46D1C3"/>
</linearGradient>
<circle class="st1" cx="502.8" cy="454" r="27.4"/>
</svg>
