<?xml version="1.0" encoding="utf-8"?>
<!-- Generator: Adobe Illustrator 24.0.3, SVG Export Plug-In . SVG Version: 6.00 Build 0)  -->
<svg version="1.1" id="Calque_1" xmlns="http://www.w3.org/2000/svg" xmlns:xlink="http://www.w3.org/1999/xlink" x="0px" y="0px"
	 viewBox="0 0 567.3 218.7" style="enable-background:new 0 0 567.3 218.7;" xml:space="preserve">
<style type="text/css">
	.st0{fill:url(#SVGID_1_);}
	.st1{fill:url(#SVGID_2_);}
	.st2{fill:url(#SVGID_3_);}
	.st3{fill:url(#SVGID_4_);}
	.st4{fill:url(#SVGID_5_);}
</style>
<linearGradient id="SVGID_1_" gradientUnits="userSpaceOnUse" x1="-31.4158" y1="87.6184" x2="495.5641" y2="277.5783" gradientTransform="matrix(1 0 0 -1 0 220)">
	<stop  offset="0" style="stop-color:#F4E380"/>
	<stop  offset="1" style="stop-color:#46D1C3"/>
</linearGradient>
<path class="st0" d="M48.5,146.1c0,25.4-19.6,46.4-44.9,48.3c-2,0.2-3.6,1.9-3.6,3.9v16.4c0,2.2,1.7,3.9,3.9,3.9c0.1,0,0.1,0,0.2,0
	c38.5-2.2,68.6-34.1,68.6-72.6V4c0-2.2-1.8-4-4-4H52.4c-2.2,0-4,1.8-4,4l0,0L48.5,146.1z"/>
<linearGradient id="SVGID_2_" gradientUnits="userSpaceOnUse" x1="7.26" y1="-19.6677" x2="534.2299" y2="170.2923" gradientTransform="matrix(1 0 0 -1 0 220)">
	<stop  offset="0" style="stop-color:#F4E380"/>
	<stop  offset="1" style="stop-color:#46D1C3"/>
</linearGradient>
<path class="st1" d="M522.6,72.7c-2.1,0-3.8,1.6-3.9,3.7c-2.1,26.7-25.4,46.7-52.1,44.6c-5.5-0.4-10.8-1.8-15.8-4
	c-2-0.9-2.9-3.3-2-5.3c0.2-0.4,0.5-0.8,0.8-1.1l78-78c1.5-1.6,1.5-4,0-5.6l-5.1-5.1c-14-14.1-33-22.1-52.9-22
	c-19,0.1-37.2,7.8-50.6,21.2c-28.3,28.2-28.3,74.6-0.1,102.9c28.4,28.4,74.4,28.5,102.8,0.1c12.7-12.6,20.2-29.5,21.2-47.4
	c0.1-2.2-1.6-4-3.7-4.1c-0.1,0-0.2,0-0.3,0H522.6z M440.6,34.5c7.1-5.6,15.7-9.1,24.7-10c8.4-0.9,16.9,0.4,24.6,3.8
	c2,0.9,2.9,3.3,2,5.3c-0.2,0.4-0.5,0.8-0.8,1.1l-58.7,58.7c-1.6,1.5-4.1,1.5-5.7-0.1c-0.3-0.3-0.6-0.7-0.8-1.1
	C417.1,72,423.1,48.2,440.6,34.5z"/>
<linearGradient id="SVGID_3_" gradientUnits="userSpaceOnUse" x1="-10.3793" y1="29.2502" x2="516.6008" y2="219.2102" gradientTransform="matrix(1 0 0 -1 0 220)">
	<stop  offset="0" style="stop-color:#F4E380"/>
	<stop  offset="1" style="stop-color:#46D1C3"/>
</linearGradient>
<path class="st2" d="M316.3,0C304,0.1,292,3.9,281.9,10.8c-0.9,0.6-2.2,0.4-2.8-0.6c-0.2-0.3-0.3-0.7-0.3-1V4c0-2.2-1.8-4-3.9-4
	h-16.4c-2.2,0-4,1.8-4,4v137.5c0,2.2,1.8,4,4,4h16.4c2.2,0,4-1.8,4-4V63.2c0-20.9,16.4-38.5,37.3-39c21.1-0.5,38.7,16.3,39.1,37.4
	c0,0.3,0,0.6,0,0.8v79c0,2.2,1.8,4,4,4h16.4c2.2,0,4-1.8,4-4V63.4C379.5,28.6,351.1-0.4,316.3,0z"/>
<linearGradient id="SVGID_4_" gradientUnits="userSpaceOnUse" x1="-24.7577" y1="69.1436" x2="502.2223" y2="259.1036" gradientTransform="matrix(1 0 0 -1 0 220)">
	<stop  offset="0" style="stop-color:#F4E380"/>
	<stop  offset="1" style="stop-color:#46D1C3"/>
</linearGradient>
<path class="st3" d="M208.9,15.9C177.5-9.1,131.8-4,106.7,27.4s-19.8,77.1,11.6,102.2c12.9,10.3,28.9,15.8,45.3,15.8
	c16.4,0,32.4-5.6,45.2-15.8c0.9-0.7,2.1-0.5,2.8,0.3c0.3,0.3,0.4,0.8,0.4,1.2v10.4c0,2.2,1.7,3.9,3.9,3.9c0,0,0,0,0,0h16.4
	c2.2,0,3.9-1.7,3.9-3.9c0,0,0,0,0,0V4c0-2.2-1.7-4-3.9-4c0,0,0,0-0.1,0H216c-2.2,0-3.9,1.8-3.9,3.9c0,0,0,0,0,0.1v10.3
	c0,1.1-1,2-2.1,1.9C209.6,16.2,209.2,16.1,208.9,15.9z M163.6,121.2c-26.8,0-48.5-21.7-48.5-48.5s21.7-48.5,48.5-48.5
	s48.5,21.7,48.5,48.5l0,0C212.1,99.5,190.4,121.2,163.6,121.2z"/>
<linearGradient id="SVGID_5_" gradientUnits="userSpaceOnUse" x1="36.3301" y1="-100.3202" x2="563.3101" y2="89.6398" gradientTransform="matrix(1 0 0 -1 0 220)">
	<stop  offset="0" style="stop-color:#F4E380"/>
	<stop  offset="1" style="stop-color:#46D1C3"/>
</linearGradient>
<circle class="st4" cx="555.2" cy="133.3" r="12.1"/>
</svg>
