<svg xmlns="http://www.w3.org/2000/svg" viewBox="0 0 567.3 218.7"><linearGradient id="a" gradientUnits="userSpaceOnUse" x1="-31.416" y1="87.618" x2="495.564" y2="277.578" gradientTransform="matrix(1 0 0 -1 0 220)"><stop offset="0" stop-color="#f4e380"/><stop offset="1" stop-color="#46d1c3"/></linearGradient><path d="M48.5 146.1c0 25.4-19.6 46.4-44.9 48.3-2 .2-3.6 1.9-3.6 3.9v16.4c0 2.2 1.7 3.9 3.9 3.9h.2c38.5-2.2 68.6-34.1 68.6-72.6V4c0-2.2-1.8-4-4-4H52.4c-2.2 0-4 1.8-4 4l.1 142.1z" fill="url(#a)"/><linearGradient id="b" gradientUnits="userSpaceOnUse" x1="7.26" y1="-19.668" x2="534.23" y2="170.292" gradientTransform="matrix(1 0 0 -1 0 220)"><stop offset="0" stop-color="#f4e380"/><stop offset="1" stop-color="#46d1c3"/></linearGradient><path d="M522.6 72.7c-2.1 0-3.8 1.6-3.9 3.7-2.1 26.7-25.4 46.7-52.1 44.6-5.5-.4-10.8-1.8-15.8-4-2-.9-2.9-3.3-2-5.3.2-.4.5-.8.8-1.1l78-78c1.5-1.6 1.5-4 0-5.6l-5.1-5.1c-14-14.1-33-22.1-52.9-22-19 .1-37.2 7.8-50.6 21.2-28.3 28.2-28.3 74.6-.1 102.9 28.4 28.4 74.4 28.5 102.8.1 12.7-12.6 20.2-29.5 21.2-47.4.1-2.2-1.6-4-3.7-4.1h-16.6zm-82-38.2c7.1-5.6 15.7-9.1 24.7-10 8.4-.9 16.9.4 24.6 3.8 2 .9 2.9 3.3 2 5.3-.2.4-.5.8-.8 1.1l-58.7 58.7c-1.6 1.5-4.1 1.5-5.7-.1-.3-.3-.6-.7-.8-1.1-8.8-20.2-2.8-44 14.7-57.7z" fill="url(#b)"/><linearGradient id="c" gradientUnits="userSpaceOnUse" x1="-10.379" y1="29.25" x2="516.601" y2="219.21" gradientTransform="matrix(1 0 0 -1 0 220)"><stop offset="0" stop-color="#f4e380"/><stop offset="1" stop-color="#46d1c3"/></linearGradient><path d="M316.3 0C304 .1 292 3.9 281.9 10.8c-.9.6-2.2.4-2.8-.6-.2-.3-.3-.7-.3-1V4c0-2.2-1.8-4-3.9-4h-16.4c-2.2 0-4 1.8-4 4v137.5c0 2.2 1.8 4 4 4h16.4c2.2 0 4-1.8 4-4V63.2c0-20.9 16.4-38.5 37.3-39 21.1-.5 38.7 16.3 39.1 37.4v79.8c0 2.2 1.8 4 4 4h16.4c2.2 0 4-1.8 4-4v-78C379.5 28.6 351.1-.4 316.3 0z" fill="url(#c)"/><linearGradient id="d" gradientUnits="userSpaceOnUse" x1="-24.758" y1="69.144" x2="502.222" y2="259.104" gradientTransform="matrix(1 0 0 -1 0 220)"><stop offset="0" stop-color="#f4e380"/><stop offset="1" stop-color="#46d1c3"/></linearGradient><path d="M208.9 15.9C177.5-9.1 131.8-4 106.7 27.4s-19.8 77.1 11.6 102.2c12.9 10.3 28.9 15.8 45.3 15.8s32.4-5.6 45.2-15.8c.9-.7 2.1-.5 2.8.3.3.3.4.8.4 1.2v10.4c0 2.2 1.7 3.9 3.9 3.9h16.4c2.2 0 3.9-1.7 3.9-3.9V4c0-2.2-1.7-4-3.9-4H216c-2.2 0-3.9 1.8-3.9 3.9v10.4c0 1.1-1 2-2.1 1.9-.4 0-.8-.1-1.1-.3zm-45.3 105.3c-26.8 0-48.5-21.7-48.5-48.5s21.7-48.5 48.5-48.5 48.5 21.7 48.5 48.5-21.7 48.5-48.5 48.5z" fill="url(#d)"/><linearGradient id="e" gradientUnits="userSpaceOnUse" x1="36.33" y1="-100.32" x2="563.31" y2="89.64" gradientTransform="matrix(1 0 0 -1 0 220)"><stop offset="0" stop-color="#f4e380"/><stop offset="1" stop-color="#46d1c3"/></linearGradient><circle cx="555.2" cy="133.3" r="12.1" fill="url(#e)"/></svg>